<svg width="159" height="31" viewBox="0 0 159 31" fill="none" xmlns="http://www.w3.org/2000/svg">
<path d="M15.2813 0L18.6919 10.4967H29.7288L20.7997 16.984L24.2103 27.4807L15.2813 20.9934L6.35227 27.4807L9.76286 16.984L0.833831 10.4967H11.8707L15.2813 0Z" fill="#FFF200"/>
<path d="M143.754 0L147.164 10.4967H158.201L149.272 16.984L152.683 27.4807L143.754 20.9934L134.825 27.4807L138.235 16.984L129.306 10.4967H140.343L143.754 0Z" fill="#FFF200"/>
<path d="M111.635 0L115.046 10.4967H126.083L117.154 16.984L120.565 27.4807L111.635 20.9934L102.706 27.4807L106.117 16.984L97.188 10.4967H108.225L111.635 0Z" fill="#FFF200"/>
<path d="M79.5174 0L82.928 10.4967H93.9649L85.0358 16.984L88.4464 27.4807L79.5174 20.9934L70.5884 27.4807L73.9989 16.984L65.0699 10.4967H76.1068L79.5174 0Z" fill="#FFF200"/>
<path d="M47.3993 0L50.8099 10.4967H61.8468L52.9178 16.984L56.3284 27.4807L47.3993 20.9934L38.4703 27.4807L41.8809 16.984L32.9519 10.4967H43.9888L47.3993 0Z" fill="#FFF200"/>
</svg>
